<svg width="19" height="25" viewBox="0 0 19 25" fill="none" xmlns="http://www.w3.org/2000/svg">
<path d="M18.9875 21.1866L17.6042 6.8297C17.5669 6.43418 17.2166 6.13217 16.7966 6.13217H14.364V4.59912C14.364 3.36656 13.858 2.21065 12.9417 1.34448C12.0401 0.490573 10.7848 0 9.49882 0C6.81648 0 4.63364 2.06347 4.63364 4.59912V6.13217H2.20105C1.78102 6.13217 1.43072 6.43418 1.39342 6.8297L0.0133349 21.1851C-0.0693732 22.0421 0.235512 22.896 0.848525 23.5307C1.46154 24.1653 2.33403 24.5287 3.24382 24.5287H15.7554C16.6636 24.5287 17.5361 24.1653 18.1491 23.5322C18.7637 22.8975 19.067 22.0421 18.9875 21.1866ZM12.7423 6.13217H6.25536V4.59912C6.25536 2.90818 7.71005 1.53304 9.49882 1.53304C10.3583 1.53304 11.1951 1.85805 11.7952 2.42681C12.4066 3.00476 12.7423 3.77588 12.7423 4.59912V6.13217Z" fill="white"/>
</svg>
