<svg width="20" height="26" viewBox="0 0 20 26" fill="none" xmlns="http://www.w3.org/2000/svg">
<path d="M19.1842 22.1868L17.7922 7.73941C17.7547 7.34139 17.4022 7.03748 16.9795 7.03748H14.5316V5.49479C14.5316 4.25446 14.0224 3.09127 13.1004 2.21964C12.193 1.36036 10.9299 0.866699 9.63577 0.866699C6.93654 0.866699 4.73996 2.94317 4.73996 5.49479V7.03748H2.29205C1.86938 7.03748 1.51688 7.34139 1.47935 7.73941L0.0905673 22.1852C0.00733848 23.0476 0.314143 23.9069 0.931015 24.5455C1.54789 25.1842 2.42587 25.5498 3.34139 25.5498H15.9318C16.8457 25.5498 17.7236 25.1842 18.3405 24.5471C18.959 23.9084 19.2642 23.0476 19.1842 22.1868ZM12.8996 7.03748H6.37189V5.49479C6.37189 3.79319 7.83574 2.4094 9.63577 2.4094C10.5007 2.4094 11.3428 2.73645 11.9466 3.30879C12.5618 3.89038 12.8996 4.66636 12.8996 5.49479V7.03748Z" fill="black"/>
</svg>
