<svg width="67" height="67" viewBox="0 0 67 67" fill="none" xmlns="http://www.w3.org/2000/svg">
<path d="M64.9062 61.7656H55.4844V45.0156H62.8125C63.0901 45.0156 63.3564 44.9053 63.5528 44.709C63.7491 44.5127 63.8594 44.2464 63.8594 43.9688V12.5625C63.8594 12.2849 63.7491 12.0186 63.5528 11.8222C63.3564 11.6259 63.0901 11.5156 62.8125 11.5156H53.3906V9.42188H57.5781C57.8558 9.42188 58.1221 9.31158 58.3184 9.11525C58.5147 8.91893 58.625 8.65265 58.625 8.375V4.1875C58.625 3.90985 58.5147 3.64357 58.3184 3.44725C58.1221 3.25092 57.8558 3.14063 57.5781 3.14062H47.1094C46.8317 3.14063 46.5654 3.25092 46.3691 3.44725C46.1728 3.64357 46.0625 3.90985 46.0625 4.1875V8.375C46.0625 8.65265 46.1728 8.91893 46.3691 9.11525C46.5654 9.31158 46.8317 9.42188 47.1094 9.42188H51.2969V11.5156H34.5469V9.42188H38.7344C39.012 9.42188 39.2783 9.31158 39.4746 9.11525C39.671 8.91893 39.7812 8.65265 39.7812 8.375V4.1875C39.7812 3.90985 39.671 3.64357 39.4746 3.44725C39.2783 3.25092 39.012 3.14063 38.7344 3.14062H28.2656C27.988 3.14063 27.7217 3.25092 27.5254 3.44725C27.329 3.64357 27.2188 3.90985 27.2188 4.1875V8.375C27.2188 8.65265 27.329 8.91893 27.5254 9.11525C27.7217 9.31158 27.988 9.42188 28.2656 9.42188H32.4531V11.5156H15.7031V9.42188H19.8906C20.1683 9.42188 20.4346 9.31158 20.6309 9.11525C20.8272 8.91893 20.9375 8.65265 20.9375 8.375V4.1875C20.9375 3.90985 20.8272 3.64357 20.6309 3.44725C20.4346 3.25092 20.1683 3.14063 19.8906 3.14062H9.42188C9.14423 3.14063 8.87795 3.25092 8.68162 3.44725C8.4853 3.64357 8.375 3.90985 8.375 4.1875V8.375C8.375 8.65265 8.4853 8.91893 8.68162 9.11525C8.87795 9.31158 9.14423 9.42188 9.42188 9.42188H13.6094V11.5156H4.1875C3.90985 11.5156 3.64357 11.6259 3.44725 11.8222C3.25092 12.0186 3.14062 12.2849 3.14062 12.5625V43.9688C3.14062 44.2464 3.25092 44.5127 3.44725 44.709C3.64357 44.9053 3.90985 45.0156 4.1875 45.0156H11.5156V61.7656H2.09375C1.8161 61.7656 1.54982 61.8759 1.3535 62.0722C1.15717 62.2686 1.04688 62.5349 1.04688 62.8125C1.04688 63.0901 1.15717 63.3564 1.3535 63.5528C1.54982 63.7491 1.8161 63.8594 2.09375 63.8594H64.9062C65.1839 63.8594 65.4502 63.7491 65.6465 63.5528C65.8428 63.3564 65.9531 63.0901 65.9531 62.8125C65.9531 62.5349 65.8428 62.2686 65.6465 62.0722C65.4502 61.8759 65.1839 61.7656 64.9062 61.7656ZM48.1562 7.32812V5.23438H56.5312V7.32812H48.1562ZM29.3125 7.32812V5.23438H37.6875V7.32812H29.3125ZM10.4688 7.32812V5.23438H18.8438V7.32812H10.4688ZM15.7031 61.7656H13.6094V45.0156H15.7031V61.7656ZM49.2031 61.7656H17.7969V45.0156H49.2031V61.7656ZM53.3906 61.7656H51.2969V45.0156H53.3906V61.7656ZM5.23438 42.9219V13.6094H61.7656V42.9219H5.23438Z" fill="#2737C4"/>
<path d="M43.9688 34.5469H59.6719C59.9495 34.5469 60.2158 34.4366 60.4121 34.2403C60.6085 34.0439 60.7188 33.7776 60.7188 33.5C60.7188 33.2224 60.6085 32.9561 60.4121 32.7597C60.2158 32.5634 59.9495 32.4531 59.6719 32.4531H43.9688C43.6911 32.4531 43.4248 32.5634 43.2285 32.7597C43.0322 32.9561 42.9219 33.2224 42.9219 33.5C42.9219 33.7776 43.0322 34.0439 43.2285 34.2403C43.4248 34.4366 43.6911 34.5469 43.9688 34.5469Z" fill="#2737C4"/>
<path d="M59.6719 35.5938H47.1094C46.8317 35.5938 46.5654 35.704 46.3691 35.9004C46.1728 36.0967 46.0625 36.363 46.0625 36.6406C46.0625 36.9183 46.1728 37.1846 46.3691 37.3809C46.5654 37.5772 46.8317 37.6875 47.1094 37.6875H59.6719C59.9495 37.6875 60.2158 37.5772 60.4121 37.3809C60.6085 37.1846 60.7188 36.9183 60.7188 36.6406C60.7188 36.363 60.6085 36.0967 60.4121 35.9004C60.2158 35.704 59.9495 35.5938 59.6719 35.5938Z" fill="#2737C4"/>
<path d="M59.6719 38.7344H54.4375C54.1599 38.7344 53.8936 38.8447 53.6972 39.041C53.5009 39.2373 53.3906 39.5036 53.3906 39.7812C53.3906 40.0589 53.5009 40.3252 53.6972 40.5215C53.8936 40.7178 54.1599 40.8281 54.4375 40.8281H59.6719C59.9495 40.8281 60.2158 40.7178 60.4121 40.5215C60.6085 40.3252 60.7188 40.0589 60.7188 39.7812C60.7188 39.5036 60.6085 39.2373 60.4121 39.041C60.2158 38.8447 59.9495 38.7344 59.6719 38.7344Z" fill="#2737C4"/>
<path d="M51.2969 38.7344H50.25C49.9724 38.7344 49.7061 38.8447 49.5097 39.041C49.3134 39.2373 49.2031 39.5036 49.2031 39.7812C49.2031 40.0589 49.3134 40.3252 49.5097 40.5215C49.7061 40.7178 49.9724 40.8281 50.25 40.8281H51.2969C51.5745 40.8281 51.8408 40.7178 52.0371 40.5215C52.2335 40.3252 52.3438 40.0589 52.3438 39.7812C52.3438 39.5036 52.2335 39.2373 52.0371 39.041C51.8408 38.8447 51.5745 38.7344 51.2969 38.7344Z" fill="#2737C4"/>
</svg>
