<svg width="47" height="37" viewBox="0 0 47 37" fill="none" xmlns="http://www.w3.org/2000/svg">
<path fill-rule="evenodd" clip-rule="evenodd" d="M31.7628 23.2468C40.5599 17.5187 46.4866 9.66417 46.5819 3.93958C48.8157 9.7986 41.8784 19.7585 31.0205 26.2675C31.0728 26.1015 31.1192 25.932 31.1611 25.7589L31.7628 23.2468Z" fill="#005C87"/>
<path fill-rule="evenodd" clip-rule="evenodd" d="M8.10012 37H28.6821C33.1428 37 36.7845 33.3364 36.7845 28.8509V8.14909C36.7845 7.67916 36.7439 7.21857 36.6707 6.76968C40.5982 3.58181 44.2434 1.80377 46.8745 2.44321C35.135 -2.44788 20.6226 23.4875 17.837 28.5972L7.59365 13.2483L17.1563 18.8899C22.9215 11.448 29.1572 5.77486 34.5402 2.52971C33.0615 0.974945 30.9798 0 28.6832 0H8.10012C3.64174 0 0 3.66247 0 8.14909V28.8497C0 33.3364 3.64174 37 8.10012 37Z" fill="#BF2459"/>
</svg>
