<svg width="63" height="63" viewBox="0 0 63 63" fill="none" xmlns="http://www.w3.org/2000/svg">
<g clip-path="url(#clip0)">
<path d="M49.1605 15.9308C51.1472 15.9303 52.8569 14.5265 53.244 12.5779C53.6311 10.6293 52.5878 8.67866 50.7521 7.9189C48.9165 7.15914 46.7998 7.80192 45.6965 9.45411C44.5933 11.1063 44.8108 13.3077 46.2161 14.7121C46.9964 15.4938 48.056 15.9324 49.1605 15.9308ZM47.6806 10.2835C48.3902 9.57916 49.4985 9.47396 50.328 10.0322C51.1575 10.5904 51.4774 11.6567 51.0921 12.5794C50.7069 13.502 49.7237 14.0242 48.7436 13.8269C47.7634 13.6295 47.059 12.7674 47.0609 11.7676C47.0617 11.2101 47.2847 10.676 47.6806 10.2835Z" fill="#2737C4"/>
<path d="M23.3803 40.3427C23.785 41.2949 24.6367 41.9836 25.6525 42.18C25.8496 42.2179 26.0498 42.2369 26.2505 42.2368C27.0759 42.2373 27.8677 41.9096 28.4513 41.3259L37.5522 32.2229C38.2646 32.4312 39.0338 32.2298 39.5528 31.6993L42.52 28.7311C43.0518 28.2124 43.254 27.4426 43.0456 26.7296L44.7281 25.0482C46.3382 23.4747 46.9783 21.1573 46.4041 18.9805C45.8299 16.8037 44.1299 15.1036 41.9532 14.5291C39.7765 13.9546 37.4589 14.5945 35.8853 16.2044L34.2019 17.8889C33.4899 17.6912 32.7266 17.8907 32.2024 18.4115L29.2342 21.3787C28.845 21.7644 28.6266 22.2901 28.6279 22.838C28.6306 23.0219 28.6577 23.2045 28.7085 23.3813L21.3757 30.714C20.48 31.619 20.2212 32.976 20.7209 34.147L23.3803 40.3427ZM35.8926 30.9619L30.5097 36.3458L27.7439 27.2656L29.9716 25.0389L35.8926 30.9619ZM37.3457 17.6607C38.4013 16.5906 39.9493 16.1683 41.4021 16.5541C42.8548 16.94 43.9893 18.0747 44.3749 19.5275C44.7605 20.9803 44.3379 22.5283 43.2677 23.5837L41.7825 25.0678L35.8616 19.1458L37.3457 17.6607ZM33.6628 19.8677L41.0606 27.2656L38.0914 30.2348L36.6093 28.7517L37.356 28.005C37.6173 27.7423 37.7185 27.3602 37.6216 27.0026C37.5247 26.645 37.2444 26.3663 36.8862 26.2714C36.5281 26.1765 36.1466 26.2799 35.8853 26.5426L35.1386 27.2893L30.6976 22.8483L33.6628 19.8677ZM22.8392 32.1713L26.0883 28.9232L28.8541 38.0014L26.9951 39.8604C26.748 40.1075 26.394 40.2151 26.0511 40.1475C25.7076 40.0837 25.4197 39.8505 25.2858 39.5278L22.6181 33.326C22.4499 32.932 22.5373 32.4753 22.8392 32.1713Z" fill="#2737C4"/>
<path d="M2.58193 60.9344H1.54914C0.978752 60.9344 0.516357 61.3968 0.516357 61.9672C0.516357 62.5376 0.978752 63 1.54914 63H2.58193C3.15232 63 3.61472 62.5376 3.61472 61.9672C3.61472 61.3968 3.15232 60.9344 2.58193 60.9344Z" fill="#2737C4"/>
<path d="M61.4509 60.9344H11.7935L20.4565 52.2714C20.8768 52.7058 21.4155 53.0071 22.0057 53.1379C23.0411 53.3637 24.1202 53.0456 24.8675 52.2941L56.542 20.6186C59.479 17.7281 60.6402 13.4845 59.5843 9.50135C58.5283 5.51818 55.4174 2.40723 51.4342 1.35127C47.451 0.29531 43.2075 1.45655 40.317 4.39349L13.9541 30.7533C13.0873 31.6224 12.8094 32.9184 13.2435 34.0665L13.3406 34.3205L3.40826 44.258C3.13773 44.528 3.03841 44.9253 3.15007 45.2908L8.314 62.2698C8.45794 62.6954 8.85128 62.9866 9.30031 63H61.4509C62.0213 63 62.4837 62.5376 62.4837 61.9672C62.4837 61.3968 62.0213 60.9344 61.4509 60.9344ZM15.4154 32.2126L41.7742 5.85385C44.1482 3.46405 47.6187 2.52588 50.8733 3.3941C54.128 4.26232 56.6701 6.80442 57.5383 10.0591C58.4066 13.3138 57.4684 16.7843 55.0786 19.1582L23.4041 50.8338C23.1505 51.0868 22.7859 51.1942 22.4357 51.1189C22.0854 51.0435 21.7972 50.7959 21.67 50.4609L21.5905 50.2544V50.2492L15.497 34.1956L15.1717 33.3394C15.0248 32.9485 15.1201 32.5078 15.4154 32.2126ZM19.4299 50.3773L15.6984 54.118L11.2068 39.375L14.1431 36.4378L19.4299 50.3773ZM9.55128 41.0306L14.0377 55.7705L9.78779 60.0194L5.30239 45.2805L9.55128 41.0306Z" fill="#2737C4"/>
</g>
<defs>
<clipPath id="clip0">
<rect width="63" height="63" fill="white"/>
</clipPath>
</defs>
</svg>
