<svg width="28" height="28" viewBox="0 0 28 28" fill="none" xmlns="http://www.w3.org/2000/svg">
<path d="M22.75 6.5625H1.75C1.40205 6.56296 1.06847 6.70139 0.822434 6.94743C0.576393 7.19347 0.437963 7.52705 0.4375 7.875V23.625C0.437963 23.973 0.576393 24.3065 0.822434 24.5526C1.06847 24.7986 1.40205 24.937 1.75 24.9375H22.75C23.098 24.937 23.4315 24.7986 23.6776 24.5526C23.9236 24.3065 24.062 23.973 24.0625 23.625V7.875C24.062 7.52705 23.9236 7.19347 23.6776 6.94743C23.4315 6.70139 23.098 6.56296 22.75 6.5625ZM10.0625 7.4375H14.4375V14.9324L12.4928 13.6358C12.4208 13.588 12.3364 13.5625 12.25 13.5625C12.1636 13.5625 12.0792 13.588 12.0072 13.6358L10.0625 14.9324V7.4375ZM23.1875 23.625C23.1873 23.741 23.1412 23.8522 23.0592 23.9342C22.9772 24.0162 22.866 24.0623 22.75 24.0625H1.75C1.63402 24.0623 1.52283 24.0162 1.44082 23.9342C1.3588 23.8522 1.31266 23.741 1.3125 23.625V7.875C1.31266 7.75902 1.3588 7.64783 1.44082 7.56582C1.52283 7.4838 1.63402 7.43766 1.75 7.4375H9.1875V15.75C9.18761 15.8292 9.20918 15.9068 9.2499 15.9747C9.29062 16.0426 9.34898 16.0981 9.41877 16.1355C9.48855 16.1729 9.56716 16.1906 9.64623 16.1869C9.7253 16.1831 9.80187 16.158 9.86781 16.1142L12.25 14.5261L14.6322 16.1142C14.7042 16.162 14.7886 16.1875 14.875 16.1875C14.991 16.1873 15.1021 16.1411 15.1841 16.0591C15.2661 15.9771 15.3123 15.866 15.3125 15.75V7.4375H22.75C22.866 7.43766 22.9772 7.4838 23.0592 7.56582C23.1412 7.64783 23.1873 7.75902 23.1875 7.875V23.625Z" fill="#2737C4"/>
<path d="M6.5625 19.25H2.1875C2.07147 19.25 1.96019 19.2961 1.87814 19.3781C1.79609 19.4602 1.75 19.5715 1.75 19.6875V23.1875C1.75 23.3035 1.79609 23.4148 1.87814 23.4969C1.96019 23.5789 2.07147 23.625 2.1875 23.625H6.5625C6.67853 23.625 6.78981 23.5789 6.87186 23.4969C6.95391 23.4148 7 23.3035 7 23.1875V19.6875C7 19.5715 6.95391 19.4602 6.87186 19.3781C6.78981 19.2961 6.67853 19.25 6.5625 19.25ZM6.125 22.75H2.625V20.125H6.125V22.75Z" fill="#2737C4"/>
<path d="M11.375 19.25H7.875C7.75897 19.25 7.64769 19.2961 7.56564 19.3781C7.48359 19.4602 7.4375 19.5715 7.4375 19.6875C7.4375 19.8035 7.48359 19.9148 7.56564 19.9969C7.64769 20.0789 7.75897 20.125 7.875 20.125H11.375C11.491 20.125 11.6023 20.0789 11.6844 19.9969C11.7664 19.9148 11.8125 19.8035 11.8125 19.6875C11.8125 19.5715 11.7664 19.4602 11.6844 19.3781C11.6023 19.2961 11.491 19.25 11.375 19.25Z" fill="#2737C4"/>
<path d="M9.625 20.5625H7.875C7.75897 20.5625 7.64769 20.6086 7.56564 20.6906C7.48359 20.7727 7.4375 20.884 7.4375 21C7.4375 21.116 7.48359 21.2273 7.56564 21.3094C7.64769 21.3914 7.75897 21.4375 7.875 21.4375H9.625C9.74103 21.4375 9.85231 21.3914 9.93436 21.3094C10.0164 21.2273 10.0625 21.116 10.0625 21C10.0625 20.884 10.0164 20.7727 9.93436 20.6906C9.85231 20.6086 9.74103 20.5625 9.625 20.5625Z" fill="#2737C4"/>
<path d="M8.75 21.875H7.875C7.75897 21.875 7.64769 21.9211 7.56564 22.0031C7.48359 22.0852 7.4375 22.1965 7.4375 22.3125C7.4375 22.4285 7.48359 22.5398 7.56564 22.6219C7.64769 22.7039 7.75897 22.75 7.875 22.75H8.75C8.86603 22.75 8.97731 22.7039 9.05936 22.6219C9.14141 22.5398 9.1875 22.4285 9.1875 22.3125C9.1875 22.1965 9.14141 22.0852 9.05936 22.0031C8.97731 21.9211 8.86603 21.875 8.75 21.875Z" fill="#2737C4"/>
<path d="M23.625 3.0625C23.509 3.0625 23.3977 3.10859 23.3156 3.19064C23.2336 3.27269 23.1875 3.38397 23.1875 3.5V3.9375H1.3125V3.5C1.3125 3.38397 1.26641 3.27269 1.18436 3.19064C1.10231 3.10859 0.991032 3.0625 0.875 3.0625C0.758968 3.0625 0.647688 3.10859 0.565641 3.19064C0.483594 3.27269 0.4375 3.38397 0.4375 3.5V5.25C0.4375 5.36603 0.483594 5.47731 0.565641 5.55936C0.647688 5.64141 0.758968 5.6875 0.875 5.6875C0.991032 5.6875 1.10231 5.64141 1.18436 5.55936C1.26641 5.47731 1.3125 5.36603 1.3125 5.25V4.8125H23.1875V5.25C23.1875 5.36603 23.2336 5.47731 23.3156 5.55936C23.3977 5.64141 23.509 5.6875 23.625 5.6875C23.741 5.6875 23.8523 5.64141 23.9344 5.55936C24.0164 5.47731 24.0625 5.36603 24.0625 5.25V3.5C24.0625 3.38397 24.0164 3.27269 23.9344 3.19064C23.8523 3.10859 23.741 3.0625 23.625 3.0625Z" fill="#2737C4"/>
<path d="M27.125 24.0625H26.6875V7.4375H27.125C27.241 7.4375 27.3523 7.39141 27.4344 7.30936C27.5164 7.22731 27.5625 7.11603 27.5625 7C27.5625 6.88397 27.5164 6.77269 27.4344 6.69064C27.3523 6.60859 27.241 6.5625 27.125 6.5625H25.375C25.259 6.5625 25.1477 6.60859 25.0656 6.69064C24.9836 6.77269 24.9375 6.88397 24.9375 7C24.9375 7.11603 24.9836 7.22731 25.0656 7.30936C25.1477 7.39141 25.259 7.4375 25.375 7.4375H25.8125V24.0625H25.375C25.259 24.0625 25.1477 24.1086 25.0656 24.1906C24.9836 24.2727 24.9375 24.384 24.9375 24.5C24.9375 24.616 24.9836 24.7273 25.0656 24.8094C25.1477 24.8914 25.259 24.9375 25.375 24.9375H27.125C27.241 24.9375 27.3523 24.8914 27.4344 24.8094C27.5164 24.7273 27.5625 24.616 27.5625 24.5C27.5625 24.384 27.5164 24.2727 27.4344 24.1906C27.3523 24.1086 27.241 24.0625 27.125 24.0625Z" fill="#2737C4"/>
<path d="M22.3125 15.75C22.1965 15.75 22.0852 15.7961 22.0031 15.8781C21.9211 15.9602 21.875 16.0715 21.875 16.1875V18.8125C21.875 19.1606 21.7367 19.4944 21.4906 19.7406C21.2444 19.9867 20.9106 20.125 20.5625 20.125C20.2144 20.125 19.8806 19.9867 19.6344 19.7406C19.3883 19.4944 19.25 19.1606 19.25 18.8125V16.1875C19.25 16.0715 19.2039 15.9602 19.1219 15.8781C19.0398 15.7961 18.9285 15.75 18.8125 15.75C18.6965 15.75 18.5852 15.7961 18.5031 15.8781C18.4211 15.9602 18.375 16.0715 18.375 16.1875V18.8125C18.3756 19.3166 18.55 19.8051 18.8688 20.1956C19.1875 20.5861 19.6312 20.8547 20.125 20.9563V22.75H18.8125C18.6965 22.75 18.5852 22.7961 18.5031 22.8781C18.4211 22.9602 18.375 23.0715 18.375 23.1875C18.375 23.3035 18.4211 23.4148 18.5031 23.4969C18.5852 23.5789 18.6965 23.625 18.8125 23.625H22.3125C22.4285 23.625 22.5398 23.5789 22.6219 23.4969C22.7039 23.4148 22.75 23.3035 22.75 23.1875C22.75 23.0715 22.7039 22.9602 22.6219 22.8781C22.5398 22.7961 22.4285 22.75 22.3125 22.75H21V20.9563C21.4938 20.8547 21.9375 20.5861 22.2562 20.1956C22.575 19.8051 22.7494 19.3166 22.75 18.8125V16.1875C22.75 16.0715 22.7039 15.9602 22.6219 15.8781C22.5398 15.7961 22.4285 15.75 22.3125 15.75Z" fill="#2737C4"/>
</svg>
