<svg width="35" height="35" viewBox="0 0 35 35" fill="none" xmlns="http://www.w3.org/2000/svg">
<path d="M35 17.5C35 7.83649 27.1635 0 17.5 0C7.83649 0 0 7.83649 0 17.5C0 27.1635 7.83649 35 17.5 35C17.6028 35 17.7051 34.9979 17.8076 34.996V21.373H14.0479V16.9913H17.8076V13.7669C17.8076 10.0275 20.0904 7.99217 23.4262 7.99217C25.0235 7.99217 26.3966 8.11127 26.7969 8.16441V12.0726H24.4967C22.682 12.0726 22.3306 12.9351 22.3306 14.2006V16.9913H26.6698L26.1042 21.373H22.3306V34.3239C29.6453 32.2269 35 25.4879 35 17.5Z" fill="white"/>
<path d="M20.3218 34.772C20.176 34.7957 20.0297 34.8176 19.8828 34.8377C20.0297 34.8176 20.176 34.7957 20.3218 34.772Z" fill="white"/>
<path d="M20.672 34.7124C20.6023 34.7252 20.5326 34.737 20.4629 34.749C20.5326 34.737 20.6023 34.7252 20.672 34.7124Z" fill="white"/>
<path d="M19.4921 34.8867C19.3215 34.9059 19.1498 34.923 18.9775 34.9375C19.1498 34.923 19.3215 34.9059 19.4921 34.8867Z" fill="white"/>
<path d="M19.8278 34.8452C19.7458 34.8562 19.6633 34.8663 19.5811 34.8759C19.6633 34.8663 19.7458 34.8562 19.8278 34.8452Z" fill="white"/>
<path d="M21.1482 34.6177C21.0867 34.6308 21.0251 34.6438 20.9634 34.6564C21.0251 34.6438 21.0867 34.6308 21.1482 34.6177Z" fill="white"/>
<path d="M22.3306 34.3242C22.281 34.3384 22.2313 34.3517 22.1816 34.3656C22.2313 34.3517 22.281 34.3384 22.3306 34.3242Z" fill="white"/>
<path d="M21.9729 34.4219C21.919 34.436 21.8648 34.4504 21.8105 34.4641C21.8648 34.4504 21.919 34.4363 21.9729 34.4219Z" fill="white"/>
<path d="M21.505 34.5386C21.4479 34.5519 21.3902 34.5645 21.3325 34.5773C21.3902 34.5645 21.4479 34.5519 21.505 34.5386Z" fill="white"/>
<path d="M18.9715 34.938C18.8793 34.9457 18.7872 34.9527 18.6948 34.9588C18.7872 34.9527 18.8793 34.9457 18.9715 34.938Z" fill="white"/>
<path d="M18.6559 34.9609C18.4738 34.9727 18.2909 34.982 18.1074 34.9882C18.2909 34.982 18.4738 34.9727 18.6559 34.9609Z" fill="white"/>
<path d="M18.0981 34.9888C18.0015 34.992 17.9045 34.9944 17.8076 34.996C17.9045 34.9944 18.0015 34.992 18.0981 34.9888Z" fill="white"/>
</svg>
