<svg width="44" height="44" viewBox="0 0 44 44" fill="none" xmlns="http://www.w3.org/2000/svg">
<path d="M25.5472 43.7136C25.364 43.7435 25.18 43.771 24.9954 43.7962C25.18 43.771 25.364 43.7435 25.5472 43.7136Z" fill="#2F2E2E"/>
<path d="M25.9875 43.6384C25.8998 43.6545 25.8122 43.6693 25.7246 43.6844C25.8122 43.6693 25.8998 43.6545 25.9875 43.6384Z" fill="#2F2E2E"/>
<path d="M24.5038 43.8574C24.2893 43.8816 24.0735 43.9031 23.8569 43.9212C24.0735 43.9031 24.2893 43.8816 24.5038 43.8574Z" fill="#2F2E2E"/>
<path d="M24.9266 43.8057C24.8236 43.8194 24.7198 43.8322 24.6165 43.8443C24.7198 43.8322 24.8236 43.8194 24.9266 43.8057Z" fill="#2F2E2E"/>
<path d="M26.5863 43.5195C26.5091 43.536 26.4315 43.5524 26.354 43.5682C26.4315 43.5524 26.5091 43.536 26.5863 43.5195Z" fill="#2F2E2E"/>
<path d="M28.0728 43.1504C28.0104 43.1682 27.9479 43.185 27.8855 43.2024C27.9479 43.185 28.0104 43.1682 28.0728 43.1504Z" fill="#2F2E2E"/>
<path d="M27.6233 43.2732C27.5555 43.291 27.4873 43.3091 27.4192 43.3262C27.4873 43.3091 27.5555 43.2913 27.6233 43.2732Z" fill="#2F2E2E"/>
<path d="M27.035 43.4202C26.9631 43.437 26.8906 43.4527 26.8181 43.4688C26.8906 43.4527 26.9631 43.437 27.035 43.4202Z" fill="#2F2E2E"/>
<path d="M23.85 43.9219C23.7342 43.9316 23.6183 43.9403 23.5022 43.9481C23.6183 43.9403 23.7342 43.9316 23.85 43.9219Z" fill="#2F2E2E"/>
<path d="M44 22C44 9.85159 34.1484 0 22 0C9.85159 0 0 9.85159 0 22C0 34.1484 9.85159 44 22 44C22.1292 44 22.2578 43.9973 22.3867 43.995V26.8689H17.6602V21.3605H22.3867V17.307C22.3867 12.606 25.2566 10.0473 29.45 10.0473C31.4582 10.0473 33.1843 10.197 33.6875 10.2638V15.177H30.7958C28.5145 15.177 28.0727 16.2613 28.0727 17.8522V21.3605H33.5277L32.8167 26.8689H28.0727V43.15C37.2683 40.5138 44 32.0419 44 22Z" fill="#2F2E2E"/>
<path d="M23.4537 43.9509C23.2247 43.9657 22.9948 43.9774 22.7642 43.9852C22.9948 43.9774 23.2247 43.9657 23.4537 43.9509Z" fill="#2F2E2E"/>
<path d="M22.7522 43.9858C22.6307 43.9899 22.5088 43.9929 22.387 43.9949C22.5088 43.9929 22.6307 43.9899 22.7522 43.9858Z" fill="#2F2E2E"/>
</svg>
