<svg width="68" height="68" viewBox="0 0 68 68" fill="none" xmlns="http://www.w3.org/2000/svg">
<g clip-path="url(#clip0)">
<path d="M36.9683 64.0869C36.4156 64.0869 35.9676 63.6388 35.9676 63.0862V60.4252C35.9676 60.0441 35.6575 59.734 35.2764 59.734H32.5898C32.2088 59.734 31.8987 60.0441 31.8987 60.4252V63.0862C31.8987 63.6388 31.4506 64.0869 30.8979 64.0869C30.3453 64.0869 29.8972 63.6388 29.8972 63.0862V60.4252C29.8972 58.9405 31.1052 57.7326 32.5898 57.7326H35.2764C36.7611 57.7326 37.969 58.9405 37.969 60.4252V63.0862C37.969 63.6388 37.5211 64.0869 36.9683 64.0869Z" fill="#2737C4"/>
<path d="M43.5548 27.506C43.226 27.0618 42.5993 26.9686 42.155 27.2972C41.7108 27.6261 41.6174 28.2528 41.9461 28.697L46.9155 35.4087C47.4683 36.1552 47.4282 37.2796 46.8245 37.9686L41.4706 44.0785H26.3957L21.0419 37.9686C20.4381 37.2796 20.3981 36.1552 20.9509 35.4087L30.8168 22.0836V29.6763C29.5661 30.6375 28.8351 32.1076 28.8351 33.7122C28.8351 36.5233 31.1221 38.8103 33.9332 38.8103C36.7443 38.8103 39.0312 36.5233 39.0312 33.7122C39.0312 32.1798 38.3493 30.7488 37.183 29.7847V22.2638L39.3804 25.2317C39.7093 25.676 40.336 25.7693 40.7802 25.4405C41.2244 25.1116 41.3178 24.4849 40.9891 24.0407L36.6966 18.2432C36.0209 17.3305 35.0137 16.8071 33.9333 16.8071C32.8529 16.8071 31.8457 17.3305 31.17 18.2432L19.3424 34.2178C18.2332 35.7159 18.3167 37.8955 19.5368 39.2879L24.0017 44.3831C22.8868 44.903 22.1118 46.0338 22.1118 47.3429V52.1171C22.1118 53.5787 23.0775 54.8189 24.4043 55.2336L24.6773 63.1212C24.696 63.6618 25.14 64.0874 25.6768 64.0874C25.6885 64.0874 25.7003 64.0872 25.712 64.0868C26.2644 64.0676 26.6966 63.6045 26.6775 63.0521L26.412 55.3815H41.588L41.3225 63.0521C41.3034 63.6045 41.7357 64.0676 42.288 64.0868C42.2997 64.0872 42.3115 64.0874 42.3232 64.0874C42.8599 64.0874 43.3041 63.6618 43.3227 63.1212L43.5973 55.1879C44.8541 54.7335 45.7548 53.5287 45.7548 52.1171V47.3429C45.7548 46.0338 44.9798 44.903 43.8649 44.3831L48.3298 39.2879C49.5499 37.8957 49.6334 35.7159 48.5242 34.2178L43.5548 27.506ZM33.9332 18.8084C34.3791 18.8084 34.7892 19.0306 35.0879 19.4339L35.1815 19.5604V30.2876C35.1815 30.6243 35.3509 30.9385 35.6321 31.1236C36.5073 31.6994 37.0298 32.6672 37.0298 33.712C37.0298 35.4195 35.6407 36.8086 33.9332 36.8086C32.2257 36.8086 30.8365 35.4195 30.8365 33.712C30.8365 32.6177 31.3967 31.6261 32.3349 31.0591C32.6349 30.8779 32.8182 30.553 32.8182 30.2026V19.3855C33.1131 19.014 33.5062 18.8084 33.9332 18.8084ZM43.7533 52.1169C43.7533 52.8131 43.1868 53.3796 42.4905 53.3796H25.3759C24.6796 53.3796 24.1131 52.8131 24.1131 52.1169V47.3426C24.1131 46.6464 24.6797 46.0798 25.3759 46.0798H42.4905C43.1869 46.0798 43.7533 46.6464 43.7533 47.3426V52.1169Z" fill="#2737C4"/>
<path d="M14.0185 27.8129C14.15 24.6424 15.0318 21.5382 16.5925 18.7874C16.8653 18.3066 16.6967 17.6959 16.216 17.4232C15.7352 17.1503 15.1245 17.319 14.8518 17.7997C13.122 20.8482 12.1495 24.2901 12.0155 27.8032C10.2885 28.2423 9.00732 29.81 9.00732 31.6717C9.00732 33.8725 10.7978 35.663 12.9986 35.663C15.1994 35.663 16.9899 33.8725 16.9899 31.6717C16.9899 29.8233 15.7268 28.2649 14.0185 27.8129ZM12.9986 33.6616C11.9014 33.6616 11.0088 32.7689 11.0088 31.6717C11.0088 30.5745 11.9014 29.6819 12.9986 29.6819C14.0958 29.6819 14.9884 30.5745 14.9884 31.6717C14.9884 32.7689 14.0958 33.6616 12.9986 33.6616Z" fill="#2737C4"/>
<path d="M65.8811 3.91309H62.6652C61.4969 3.91309 60.5464 4.86364 60.5464 6.03195V6.63918H37.7268V6.03195C37.7268 4.86364 36.7763 3.91309 35.608 3.91309H32.392C31.2237 3.91309 30.2732 4.86364 30.2732 6.03195V6.63918H7.45365V6.03195C7.45365 4.86364 6.50309 3.91309 5.33478 3.91309H2.11886C0.950553 3.91309 0 4.86364 0 6.03195V9.24787C0 10.4162 0.950553 11.3667 2.11886 11.3667H5.33478C6.50309 11.3667 7.45365 10.4162 7.45365 9.24787V8.64063H24.8258C22.0475 9.91675 19.5396 11.7705 17.4801 14.11C17.1149 14.5249 17.155 15.1572 17.57 15.5224C17.7601 15.6897 17.9959 15.772 18.2309 15.772C18.5084 15.772 18.7846 15.6573 18.9824 15.4326C21.9416 12.0711 25.917 9.81134 30.2732 8.98928V9.248C30.2732 10.4163 31.2237 11.3669 32.392 11.3669H35.608C36.7763 11.3669 37.7268 10.4163 37.7268 9.248V8.98915C46.8116 10.7009 53.5992 18.5352 53.9827 27.8129C52.2739 28.2644 51.0101 29.8231 51.0101 31.6719C51.0101 33.8727 52.8006 35.6632 55.0014 35.6632C57.2022 35.6632 58.9927 33.8727 58.9927 31.6719C58.9927 29.8104 57.7116 28.2428 55.9848 27.8035C55.665 19.3856 50.5522 12.0369 43.1748 8.6409H60.5464V9.24813C60.5464 10.4164 61.4969 11.367 62.6652 11.367H65.8811C67.0495 11.367 68 10.4164 68 9.24813V6.03195C68 4.86364 67.0495 3.91309 65.8811 3.91309ZM5.4522 9.24787C5.4522 9.31258 5.3995 9.36528 5.33478 9.36528H2.11886C2.05415 9.36528 2.00144 9.31258 2.00144 9.24787V6.03195C2.00144 5.96723 2.05415 5.91453 2.11886 5.91453H5.33478C5.3995 5.91453 5.4522 5.96723 5.4522 6.03195V9.24787ZM56.9913 31.6716C56.9913 32.7688 56.0986 33.6615 55.0014 33.6615C53.9042 33.6615 53.0116 32.7688 53.0116 31.6716C53.0116 30.5744 53.9042 29.6818 55.0014 29.6818C56.0986 29.6818 56.9913 30.5744 56.9913 31.6716ZM35.7254 9.24787C35.7254 9.31258 35.6727 9.36528 35.608 9.36528H32.392C32.3273 9.36528 32.2746 9.31258 32.2746 9.24787V6.03195C32.2746 5.96723 32.3273 5.91453 32.392 5.91453H35.608C35.6727 5.91453 35.7254 5.96723 35.7254 6.03195V9.24787ZM65.9986 9.24787C65.9986 9.31258 65.9459 9.36528 65.8811 9.36528H62.6652C62.6005 9.36528 62.5478 9.31258 62.5478 9.24787V6.03195C62.5478 5.96723 62.6005 5.91453 62.6652 5.91453H65.8811C65.9459 5.91453 65.9986 5.96723 65.9986 6.03195V9.24787Z" fill="#2737C4"/>
</g>
<defs>
<clipPath id="clip0">
<rect width="68" height="68" fill="white"/>
</clipPath>
</defs>
</svg>
