<svg width="44" height="44" viewBox="0 0 44 44" fill="none" xmlns="http://www.w3.org/2000/svg">
<path d="M26.2109 22C26.2109 24.3257 24.3257 26.2109 22 26.2109C19.6743 26.2109 17.7891 24.3257 17.7891 22C17.7891 19.6743 19.6743 17.7891 22 17.7891C24.3257 17.7891 26.2109 19.6743 26.2109 22Z" fill="#2F2E2E"/>
<path d="M31.8478 14.5497C31.6454 14.0011 31.3224 13.5046 30.9028 13.0971C30.4953 12.6775 29.9991 12.3546 29.4503 12.1521C29.0051 11.9792 28.3364 11.7735 27.1048 11.7174C25.7724 11.6566 25.3729 11.6436 21.9999 11.6436C18.6265 11.6436 18.227 11.6563 16.895 11.7171C15.6633 11.7735 14.9943 11.9792 14.5495 12.1521C14.0006 12.3546 13.5042 12.6775 13.097 13.0971C12.6773 13.5046 12.3544 14.0008 12.1516 14.5497C11.9788 14.9948 11.773 15.6638 11.7169 16.8955C11.6562 18.2275 11.6431 18.627 11.6431 22.0004C11.6431 25.3734 11.6562 25.7729 11.7169 27.1053C11.773 28.3369 11.9788 29.0056 12.1516 29.4507C12.3544 29.9996 12.677 30.4958 13.0966 30.9033C13.5042 31.3229 14.0003 31.6458 14.5492 31.8483C14.9943 32.0215 15.6633 32.2273 16.895 32.2833C18.227 32.3441 18.6262 32.3568 21.9995 32.3568C25.3733 32.3568 25.7727 32.3441 27.1044 32.2833C28.3361 32.2273 29.0051 32.0215 29.4503 31.8483C30.552 31.4233 31.4228 30.5525 31.8478 29.4507C32.0207 29.0056 32.2264 28.3369 32.2828 27.1053C32.3436 25.7729 32.3564 25.3734 32.3564 22.0004C32.3564 18.627 32.3436 18.2275 32.2828 16.8955C32.2268 15.6638 32.021 14.9948 31.8478 14.5497ZM21.9999 28.487C18.417 28.487 15.5126 25.5829 15.5126 22C15.5126 18.4172 18.417 15.5131 21.9999 15.5131C25.5824 15.5131 28.4868 18.4172 28.4868 22C28.4868 25.5829 25.5824 28.487 21.9999 28.487ZM28.7433 16.7726C27.9061 16.7726 27.2273 16.0938 27.2273 15.2566C27.2273 14.4194 27.9061 13.7406 28.7433 13.7406C29.5805 13.7406 30.2593 14.4194 30.2593 15.2566C30.2589 16.0938 29.5805 16.7726 28.7433 16.7726Z" fill="#2F2E2E"/>
<path d="M22 0C9.85159 0 0 9.85159 0 22C0 34.1484 9.85159 44 22 44C34.1484 44 44 34.1484 44 22C44 9.85159 34.1484 0 22 0ZM34.5566 27.2083C34.4955 28.5531 34.2817 29.4712 33.9695 30.2748C33.3132 31.9718 31.9718 33.3132 30.2748 33.9695C29.4715 34.2817 28.5531 34.4952 27.2086 34.5566C25.8615 34.618 25.4311 34.6328 22.0003 34.6328C18.5692 34.6328 18.1392 34.618 16.7917 34.5566C15.4473 34.4952 14.5288 34.2817 13.7255 33.9695C12.8822 33.6523 12.1189 33.1551 11.4878 32.5122C10.8452 31.8815 10.3481 31.1178 10.0309 30.2748C9.71866 29.4715 9.50482 28.5531 9.44373 27.2086C9.38162 25.8611 9.36719 25.4308 9.36719 22C9.36719 18.5692 9.38162 18.1389 9.44339 16.7917C9.50449 15.4469 9.71799 14.5288 10.0302 13.7252C10.3474 12.8822 10.8449 12.1185 11.4878 11.4878C12.1185 10.8449 12.8822 10.3477 13.7252 10.0305C14.5288 9.71832 15.4469 9.50482 16.7917 9.44339C18.1389 9.38196 18.5692 9.36719 22 9.36719C25.4308 9.36719 25.8611 9.38196 27.2083 9.44373C28.5531 9.50482 29.4712 9.71832 30.2748 10.0302C31.1178 10.3474 31.8815 10.8449 32.5126 11.4878C33.1551 12.1189 33.6526 12.8822 33.9695 13.7252C34.282 14.5288 34.4955 15.4469 34.5569 16.7917C34.6184 18.1389 34.6328 18.5692 34.6328 22C34.6328 25.4308 34.6184 25.8611 34.5566 27.2083Z" fill="#2F2E2E"/>
</svg>
