<svg width="22" height="22" viewBox="0 0 22 22" fill="none" xmlns="http://www.w3.org/2000/svg">
<g clip-path="url(#clip0)">
<path d="M20.0662 2.62109H1.93338C1.63573 2.62109 1.35708 2.69427 1.10498 2.81488L10.9568 12.6667L13.1649 10.5446C13.1649 10.5446 13.1651 10.5444 13.1651 10.5443C13.1652 10.5442 13.1654 10.5441 13.1654 10.5441L20.8949 2.81505C20.6427 2.69436 20.3639 2.62109 20.0662 2.62109Z" fill="#BF2459"/>
<path d="M21.8066 3.72656L14.5327 11.0001L21.8063 18.2737C21.9269 18.0216 22.0001 17.7429 22.0001 17.4453V4.55466C22.0001 4.25718 21.9271 3.97857 21.8066 3.72656Z" fill="#BF2459"/>
<path d="M0.193789 3.72656C0.0731758 3.97866 0 4.25731 0 4.55496V17.4456C0 17.7431 0.0730898 18.0217 0.193617 18.2738L7.4675 11.0003L0.193789 3.72656Z" fill="#BF2459"/>
<path d="M13.6213 11.9117L11.4128 14.0341C11.2869 14.16 11.122 14.2229 10.9572 14.2229C10.7923 14.2229 10.6273 14.16 10.5015 14.0341L8.37899 11.9116L1.10498 19.1852C1.35712 19.3059 1.63595 19.3791 1.93368 19.3791H20.0665C20.3641 19.3791 20.6428 19.3059 20.8949 19.1853L13.6213 11.9117Z" fill="#BF2459"/>
</g>
<defs>
<clipPath id="clip0">
<rect width="22" height="22" fill="white"/>
</clipPath>
</defs>
</svg>
