<svg width="38" height="38" viewBox="0 0 38 38" fill="none" xmlns="http://www.w3.org/2000/svg">
<path d="M4.37891 29.2422C1.96435 29.2422 0 31.2065 0 33.6211C0 36.0357 1.96435 38 4.37891 38C5.19873 38 5.86328 37.3354 5.86328 36.5156C5.86328 35.6958 5.19873 35.0312 4.37891 35.0312C3.60132 35.0312 2.96875 34.3987 2.96875 33.6211C2.96875 32.8435 3.60132 32.2109 4.37891 32.2109C5.1565 32.2109 5.78906 32.8435 5.78906 33.6211C5.78906 34.4409 6.45362 35.1055 7.27344 35.1055C8.09326 35.1055 8.75781 34.4409 8.75781 33.6211C8.75781 31.2065 6.79347 29.2422 4.37891 29.2422Z" fill="black"/>
<path d="M13.5078 5.86328H36.5156C37.3354 5.86328 38 5.19873 38 4.37891C38 3.55909 37.3354 2.89453 36.5156 2.89453H13.5078C12.688 2.89453 12.0234 3.55909 12.0234 4.37891C12.0234 5.19873 12.688 5.86328 13.5078 5.86328Z" fill="black"/>
<path d="M4.37891 14.6211C1.96435 14.6211 0 16.5854 0 19C0 21.4146 1.96435 23.3789 4.37891 23.3789C5.19873 23.3789 5.86328 22.7144 5.86328 21.8945C5.86328 21.0747 5.19873 20.4102 4.37891 20.4102C3.60132 20.4102 2.96875 19.7776 2.96875 19C2.96875 18.2224 3.60132 17.5898 4.37891 17.5898C5.1565 17.5898 5.78906 18.2224 5.78906 19C5.78906 19.8198 6.45362 20.4844 7.27344 20.4844C8.09326 20.4844 8.75781 19.8198 8.75781 19C8.75781 16.5854 6.79347 14.6211 4.37891 14.6211Z" fill="black"/>
<path d="M36.5156 17.5156H13.5078C12.688 17.5156 12.0234 18.1802 12.0234 19C12.0234 19.8198 12.688 20.4844 13.5078 20.4844H36.5156C37.3354 20.4844 38 19.8198 38 19C38 18.1802 37.3354 17.5156 36.5156 17.5156Z" fill="black"/>
<path d="M36.5156 32.1367H13.5078C12.688 32.1367 12.0234 32.8013 12.0234 33.6211C12.0234 34.4409 12.688 35.1055 13.5078 35.1055H36.5156C37.3354 35.1055 38 34.4409 38 33.6211C38 32.8013 37.3354 32.1367 36.5156 32.1367Z" fill="black"/>
<path d="M4.37891 0C1.96435 0 0 1.96435 0 4.37891C0 6.79347 1.96435 8.75781 4.37891 8.75781C5.19873 8.75781 5.86328 8.09326 5.86328 7.27344C5.86328 6.45362 5.19873 5.78906 4.37891 5.78906C3.60132 5.78906 2.96875 5.1565 2.96875 4.37891C2.96875 3.60132 3.60132 2.96875 4.37891 2.96875C5.1565 2.96875 5.78906 3.60132 5.78906 4.37891C5.78906 5.19873 6.45362 5.86328 7.27344 5.86328C8.09326 5.86328 8.75781 5.19873 8.75781 4.37891C8.75781 1.96435 6.79347 0 4.37891 0Z" fill="black"/>
</svg>
