<svg width="60" height="60" viewBox="0 0 60 60" fill="none" xmlns="http://www.w3.org/2000/svg">
<path d="M46.6676 27.6588L19.9669 0.958529C19.3493 0.340485 18.525 0 17.6459 0C16.7669 0 15.9425 0.340485 15.325 0.958529L13.3587 2.92437C12.0791 4.20533 12.0791 6.28727 13.3587 7.56628L35.7799 29.9876L13.3338 52.4337C12.7162 53.0518 12.3752 53.8757 12.3752 54.7542C12.3752 55.6337 12.7162 56.4576 13.3338 57.0761L15.3001 59.0415C15.9181 59.6595 16.742 60 17.6211 60C18.5001 60 19.3245 59.6595 19.942 59.0415L46.6676 32.3168C47.2867 31.6968 47.6267 30.869 47.6247 29.989C47.6267 29.1056 47.2867 28.2783 46.6676 27.6588Z" fill="#D8D6D6"/>
</svg>
