<svg width="60" height="60" viewBox="0 0 60 60" fill="none" xmlns="http://www.w3.org/2000/svg">
<g clip-path="url(#clip0)">
<path d="M13.3324 32.3412L40.0331 59.0415C40.6507 59.6595 41.475 60 42.3541 60C43.2331 60 44.0575 59.6595 44.675 59.0415L46.6413 57.0756C47.9209 55.7947 47.9209 53.7127 46.6413 52.4337L24.2201 30.0124L46.6662 7.56628C47.2838 6.94823 47.6248 6.12434 47.6248 5.24581C47.6248 4.3663 47.2838 3.54241 46.6662 2.92387L44.6999 0.958526C44.0819 0.34048 43.258 -3.81757e-07 42.3789 -4.58603e-07C41.4999 -5.3545e-07 40.6755 0.34048 40.058 0.958526L13.3324 27.6832C12.7133 28.3032 12.3733 29.131 12.3753 30.011C12.3733 30.8944 12.7133 31.7217 13.3324 32.3412Z" fill="#D8D6D6"/>
</g>
<defs>
<clipPath id="clip0">
<rect width="60" height="60" fill="white" transform="translate(60 60) rotate(-180)"/>
</clipPath>
</defs>
</svg>
