<svg width="65" height="65" viewBox="0 0 65 65" fill="none" xmlns="http://www.w3.org/2000/svg">
<path d="M63.9167 21.6667H58.5V14.0833C58.5 13.4851 58.0149 13 57.4167 13H54.1667V1.08333C54.1667 0.485062 53.6816 0 53.0833 0H11.9167C11.3184 0 10.8333 0.485062 10.8333 1.08333V13H7.58333C6.98506 13 6.5 13.4851 6.5 14.0833V21.6667H1.08333C0.485062 21.6667 0 22.1517 0 22.75V53.0833C0 53.6816 0.485062 54.1667 1.08333 54.1667H10.8333V63.9167C10.8333 64.5149 11.3184 65 11.9167 65H53.0833C53.6816 65 54.1667 64.5149 54.1667 63.9167V54.1667H63.9167C64.5149 54.1667 65 53.6816 65 53.0833V22.75C65 22.1517 64.5149 21.6667 63.9167 21.6667ZM54.1667 15.1667H56.3333V21.6667H54.1667V15.1667ZM13 2.16667H52V21.6667H13V2.16667ZM8.66667 15.1667H10.8333V21.6667H8.66667V15.1667ZM10.8333 47.6667H9.75V44.4167H10.8333V47.6667ZM52 62.8333H13V44.4167H52V62.8333ZM62.8333 52H54.1667V49.8333H56.3333C56.9316 49.8333 57.4167 49.3483 57.4167 48.75V43.3333C57.4167 42.7351 56.9316 42.25 56.3333 42.25H8.66667C8.0684 42.25 7.58333 42.7351 7.58333 43.3333V48.75C7.58333 49.3483 8.0684 49.8333 8.66667 49.8333H10.8333V52H2.16667V23.8333H62.8333V52ZM54.1667 47.6667V44.4167H55.25V47.6667H54.1667Z" fill="#2737C4"/>
<path d="M47.6666 47.6667H23.8333V49.8333H47.6666V47.6667Z" fill="#2737C4"/>
<path d="M47.6666 52H17.3333V54.1667H47.6666V52Z" fill="#2737C4"/>
<path d="M41.1666 56.3333H17.3333V58.5H41.1666V56.3333Z" fill="#2737C4"/>
<path d="M21.6666 47.6667H17.3333V49.8333H21.6666V47.6667Z" fill="#2737C4"/>
<path d="M14.0833 26H5.41659C4.81831 26 4.33325 26.4851 4.33325 27.0833V31.4167C4.33325 32.0149 4.81831 32.5 5.41659 32.5H14.0833C14.6815 32.5 15.1666 32.0149 15.1666 31.4167V27.0833C15.1666 26.4851 14.6815 26 14.0833 26ZM12.9999 30.3333H6.49992V28.1667H12.9999V30.3333Z" fill="#2737C4"/>
<path d="M28.1666 30.3333H17.3333V32.5H28.1666V30.3333Z" fill="#2737C4"/>
<path d="M32.4999 30.3333H30.3333V32.5H32.4999V30.3333Z" fill="#2737C4"/>
</svg>
