<svg width="61" height="61" viewBox="0 0 61 61" fill="none" xmlns="http://www.w3.org/2000/svg">
<path d="M60.1064 5.92034H32.259V0.893555C32.259 0.400074 31.859 0 31.3654 0H25.7905C25.297 0 24.8969 0.400074 24.8969 0.893555V5.92034H13.962C13.4685 5.92034 13.0684 6.32041 13.0684 6.81389V14.4963C12.4787 14.8106 11.9198 15.2238 11.4492 15.6994V13.0732C11.4492 11.4532 9.83756 10.123 7.44045 9.68137V7.74164C7.44045 7.24816 7.04038 6.84808 6.5469 6.84808C4.96495 6.84808 3.35655 7.4563 2.13405 8.51677C0.757973 9.71056 0 11.3676 0 13.1824V16.9262C0 18.0815 1.78711 18.0815 1.78711 16.9262V13.1824C1.78711 11.2265 3.24265 9.13189 5.65334 8.7112V42.9884C4.25106 43.1637 2.81899 43.7246 1.79068 44.7129C1.78878 43.4961 1.78711 21.6744 1.78711 21.6744C1.78711 20.5191 0 20.5191 0 21.6744V49.43C0 49.4802 0.00512305 49.529 0.0131055 49.5769C0.100912 52.1979 2.52578 54.1566 5.72459 54.1566C7.2733 54.1566 8.6589 53.7157 9.67958 52.9893L9.68006 56.2744C9.68053 59.2939 12.7004 61 15.4055 61C18.2768 60.9995 21.1292 59.3824 21.1292 56.2725L21.1272 43.6391H46.5745L28.0324 59.4262C27.4125 59.9538 27.7975 61 28.6116 61H55.5217C56.0153 61 56.4152 60.5999 56.4152 60.1064V55.7719C56.4152 54.6166 54.6281 54.6166 54.6281 55.7719V59.2129H31.0396L54.6281 39.1295V50.8423C54.6281 51.9976 56.4152 51.9976 56.4152 50.8423V43.6393H60.1064C60.6 43.6393 61 43.2392 61 42.7458V30.2736V6.81389C61 6.32041 60.6 5.92034 60.1064 5.92034ZM59.2129 7.70745V29.3801H38.2856V7.70745H59.2129ZM30.4719 1.78711V24.6556H26.684V22.372H27.3329C28.4882 22.372 28.4882 20.5849 27.3329 20.5849H26.684V18.2434H28.1669C29.3222 18.2434 29.3222 16.4563 28.1669 16.4563H26.684V14.1148H27.3329C27.8264 14.1148 28.2264 13.7148 28.2264 13.2213C28.2264 12.7278 27.8264 12.3277 27.3329 12.3277H26.684V9.98625H28.1669C29.3222 9.98625 29.3222 8.19914 28.1669 8.19914H26.684V5.85779H27.3329C28.4882 5.85779 28.4882 4.07068 27.3329 4.07068H26.684V1.78711H30.4719ZM14.1134 15.9386C14.4992 15.7561 14.9038 15.6282 15.3271 15.5546L15.3326 49.8319C14.3371 49.9565 12.728 50.3475 11.4701 51.5569C11.4681 50.3568 11.4662 49.4279 11.4662 49.4026L11.4614 20.0265C11.4612 18.4253 12.437 16.7316 14.1134 15.9386ZM19.3418 53.6651C19.3116 53.6478 19.2812 53.6308 19.2504 53.6139C18.2255 53.0513 16.8875 52.7375 15.4753 52.7275L15.4752 51.6166C15.9034 51.5576 16.191 51.562 16.1979 51.562C16.7574 51.5246 17.0646 51.2269 17.1197 50.6688L17.1145 18.3578C18.299 18.6509 19.3363 19.2513 19.3364 19.916L19.3418 53.6651ZM9.66207 13.0732V42.5588V46.8102C8.66641 46.2385 7.32095 45.8944 5.79583 45.8842V44.773C6.22426 44.7141 6.51187 44.7186 6.51854 44.7187C7.07803 44.6813 7.38529 44.3836 7.44045 43.8256V11.5089C8.80151 11.8347 9.66207 12.5105 9.66207 13.0732ZM9.66207 49.8532C9.66207 51.2171 7.85887 52.3695 5.72459 52.3695C3.48498 52.3695 1.79604 51.1058 1.79604 49.43C1.79604 47.733 2.41117 46.1256 4.00872 45.3139V46.8163C4.07235 47.4008 4.3982 47.6974 4.98615 47.7059C6.22784 47.5891 7.60046 47.728 8.71061 48.3375C9.35123 48.6893 9.71425 49.1361 9.66207 49.8532ZM15.4052 59.2129C15.4049 59.2129 15.4048 59.2129 15.4043 59.2129C13.1653 59.2129 11.4763 57.9495 11.4761 56.2742C11.4759 54.5773 12.0906 52.9696 13.6882 52.1576L13.6884 53.6601C13.7522 54.2445 14.078 54.541 14.6659 54.5495C16.1817 54.407 19.4149 54.6503 19.3422 56.6959C19.3425 58.06 17.5395 59.2127 15.4052 59.2129ZM21.1235 19.9155C21.1233 18.3069 19.5063 16.9688 17.1142 16.5253L17.1138 14.5847C17.0626 14.0401 16.7648 13.7423 16.2202 13.6913C15.7641 13.6914 15.3061 13.7436 14.8555 13.841V7.70745H24.8969V25.549C24.8969 26.0425 25.297 26.4425 25.7905 26.4425H31.3654C31.859 26.4425 32.259 26.0425 32.259 25.549V7.70745H36.4985V30.2736V41.8521H21.1271L21.1235 19.9155ZM55.8964 36.3839C55.5799 36.2377 55.2076 36.2887 54.9423 36.5147L48.6735 41.8521H38.2856V31.1672H59.2129V41.8521H56.4152V37.1951C56.4152 36.8467 56.2127 36.5301 55.8964 36.3839Z" fill="#2737C4"/>
<path d="M42.5739 25.6053H50.8071C51.0423 25.6053 51.2739 25.5091 51.4398 25.3426L55.5564 21.2293C55.7241 21.0617 55.8184 20.8342 55.8184 20.5971L55.8172 12.3756C55.8172 11.8921 55.407 11.4822 54.9235 11.4822L46.6892 11.4831C46.4525 11.4831 46.2252 11.5773 46.0578 11.7446L41.9429 15.8563C41.7768 16.0219 41.6802 16.2547 41.6802 16.4891V24.7118C41.6803 25.2054 42.0804 25.6053 42.5739 25.6053ZM43.4674 17.3826H49.9135V23.8182H43.4674V17.3826ZM51.7007 22.5558V16.8595L54.0307 14.5315L54.0315 20.2271L51.7007 22.5558ZM47.0595 13.2702L52.7651 13.2695L50.4373 15.5955H44.7322L47.0595 13.2702Z" fill="#2737C4"/>
<path d="M46.7999 37.4205H43.8391C42.6838 37.4205 42.6838 39.2077 43.8391 39.2077H46.7999C47.9552 39.2077 47.9552 37.4205 46.7999 37.4205Z" fill="#2737C4"/>
<path d="M51.4257 33.8648H43.8391C42.6838 33.8648 42.6838 35.6519 43.8391 35.6519H51.4257C52.581 35.6519 52.581 33.8648 51.4257 33.8648Z" fill="#2737C4"/>
<path d="M50.6021 45.9058L39.8134 55.0916C39.1937 55.6193 39.5787 56.6654 40.3926 56.6654H51.1814C51.675 56.6654 52.075 56.2654 52.075 55.7719V46.5861C52.075 45.9068 51.2169 45.3822 50.6021 45.9058ZM50.2879 54.8783H42.8205L50.2879 48.5205V54.8783Z" fill="#2737C4"/>
</svg>
