<svg width="63" height="63" viewBox="0 0 63 63" fill="none" xmlns="http://www.w3.org/2000/svg">
<path d="M32.4844 27.5625H24.6094C24.3483 27.5625 24.0979 27.6662 23.9133 27.8508C23.7287 28.0354 23.625 28.2858 23.625 28.5469V53.737L3.65204 33.7542C3.51361 33.6176 3.33783 33.5251 3.14687 33.4883C2.95591 33.4515 2.75833 33.4721 2.57907 33.5475C2.3983 33.6199 2.24346 33.745 2.13463 33.9064C2.0258 34.0679 1.96801 34.2584 1.96876 34.4531V60.0469C1.96876 60.3079 2.07247 60.5583 2.25707 60.7429C2.44168 60.9275 2.69206 61.0312 2.95313 61.0312H32.4844C32.7455 61.0312 32.9958 60.9275 33.1804 60.7429C33.365 60.5583 33.4688 60.3079 33.4688 60.0469V28.5469C33.4688 28.2858 33.365 28.0354 33.1804 27.8508C32.9958 27.6662 32.7455 27.5625 32.4844 27.5625ZM3.93751 59.0625V36.8255L26.1745 59.0625H3.93751ZM31.5 31.5H27.5625V33.4688H31.5V35.4375H29.5313V37.4062H31.5V39.375H29.5313V41.3438H31.5V43.3125H27.5625V45.2812H31.5V47.25H29.5313V49.2188H31.5V51.1875H29.5313V53.1562H31.5V55.125H27.5625V57.0938H31.5V59.0625H28.9505L25.5938 55.7058V29.5312H31.5V31.5Z" fill="#2737C4"/>
<path d="M6.89062 57.0937H19.0408C19.2354 57.0937 19.4257 57.0359 19.5875 56.9278C19.7494 56.8196 19.8755 56.6659 19.95 56.486C20.0245 56.3062 20.044 56.1083 20.006 55.9174C19.9681 55.7264 19.8743 55.5511 19.7367 55.4134L7.58658 43.2623C7.44891 43.1246 7.27353 43.0309 7.08261 42.993C6.89169 42.955 6.69379 42.9745 6.51395 43.049C6.3341 43.1235 6.18038 43.2496 6.07221 43.4114C5.96405 43.5733 5.90629 43.7636 5.90625 43.9582V56.1094C5.90625 56.3704 6.00996 56.6208 6.19457 56.8054C6.37917 56.99 6.62955 57.0937 6.89062 57.0937ZM7.875 46.3345L16.6645 55.125H7.875V46.3345Z" fill="#2737C4"/>
<path d="M48.2344 33.4688H46.2361C46.8905 32.6232 47.247 31.5849 47.25 30.5156C47.2471 29.3818 46.8542 28.2835 46.1372 27.4052C45.4202 26.5269 44.4228 25.922 43.3125 25.6922V23.625H41.3438V25.6922C40.2335 25.922 39.2361 26.5269 38.5191 27.4052C37.8021 28.2835 37.4092 29.3818 37.4062 30.5156C37.4092 31.5849 37.7657 32.6232 38.4202 33.4688H36.4219C36.1608 33.4688 35.9104 33.5725 35.7258 33.7571C35.5412 33.9417 35.4375 34.1921 35.4375 34.4531V54.1406C35.4386 54.2933 35.4746 54.4436 35.5429 54.5801C35.6111 54.7167 35.7098 54.8357 35.8313 54.9281L39.375 57.5859V61.0312H41.3438V39.375H43.3125V61.0312H45.2812V57.5859L48.825 54.9281C48.9465 54.8357 49.0451 54.7167 49.1134 54.5801C49.1817 54.4436 49.2177 54.2933 49.2188 54.1406V34.4531C49.2188 34.1921 49.115 33.9417 48.9304 33.7571C48.7458 33.5725 48.4954 33.4688 48.2344 33.4688ZM42.3281 27.5625C42.9122 27.5625 43.4832 27.7357 43.9688 28.0602C44.4544 28.3847 44.8329 28.8459 45.0565 29.3855C45.28 29.9251 45.3385 30.5189 45.2245 31.0918C45.1106 31.6646 44.8293 32.1908 44.4163 32.6038C44.0033 33.0168 43.4771 33.2981 42.9043 33.412C42.3314 33.526 41.7376 33.4675 41.198 33.244C40.6584 33.0204 40.1972 32.6419 39.8727 32.1563C39.5482 31.6707 39.375 31.0997 39.375 30.5156C39.3773 29.7331 39.6892 28.9833 40.2425 28.43C40.7958 27.8767 41.5456 27.5648 42.3281 27.5625ZM39.375 55.125L37.4062 53.6484V39.375H39.375V55.125ZM47.25 53.6484L45.2812 55.125V39.375H47.25V53.6484ZM47.25 37.4062H37.4062V35.4375H47.25V37.4062Z" fill="#2737C4"/>
<path d="M41.3438 29.5312H43.3125V31.5H41.3438V29.5312Z" fill="#2737C4"/>
<path d="M60.0469 23.625H52.1719C51.9108 23.625 51.6604 23.7287 51.4758 23.9133C51.2912 24.0979 51.1875 24.3483 51.1875 24.6094V51.1875C51.1875 51.3269 51.2177 51.4646 51.2761 51.5911L55.2136 60.4505C55.2919 60.6223 55.418 60.768 55.5768 60.8702C55.7356 60.9724 55.9205 61.0267 56.1094 61.0267C56.2982 61.0267 56.4831 60.9724 56.6419 60.8702C56.8008 60.768 56.9269 60.6223 57.0052 60.4505L60.9427 51.5911C61.001 51.4646 61.0313 51.3269 61.0312 51.1875V24.6094C61.0312 24.3483 60.9275 24.0979 60.7429 23.9133C60.5583 23.7287 60.3079 23.625 60.0469 23.625ZM53.1562 31.5H55.125V50.2031H53.1562V31.5ZM56.1094 57.6253L55.44 56.1094H56.7788L56.1094 57.6253ZM57.6548 54.1406H54.5639L53.6878 52.1719H58.5309L57.6548 54.1406ZM59.0625 50.2031H57.0938V31.5H59.0625V50.2031ZM59.0625 29.5313H53.1562V25.5938H59.0625V29.5313Z" fill="#2737C4"/>
<path d="M35.4375 59.0625H37.4062V61.0312H35.4375V59.0625Z" fill="#2737C4"/>
<path d="M49.2188 59.0625H47.25V61.0312H49.2188C49.9171 61.0312 50.6074 60.8826 51.2438 60.5952C51.8803 60.3079 52.4483 59.8884 52.9102 59.3647L51.4336 58.0623C51.1565 58.3766 50.8157 58.6284 50.4338 58.8008C50.0519 58.9732 49.6377 59.0624 49.2188 59.0625Z" fill="#2737C4"/>
<path d="M53.8552 10.1292L45.9802 2.25422C45.7924 2.0729 45.5422 1.97069 45.2812 1.96875H13.7812C12.4759 1.96875 11.224 2.4873 10.301 3.41033C9.37793 4.33336 8.85938 5.58526 8.85938 6.89062V37.4062H10.8281V6.89062C10.8305 6.10813 11.1423 5.35834 11.6957 4.80503C12.249 4.25172 12.9988 3.93984 13.7812 3.9375H44.2969V8.85938C44.2992 9.64187 44.6111 10.3917 45.1644 10.945C45.7177 11.4983 46.4675 11.8102 47.25 11.8125H52.1719V21.6562H54.1406V10.8281C54.1387 10.5672 54.0365 10.3169 53.8552 10.1292ZM47.25 9.84375C46.9889 9.84375 46.7385 9.74004 46.5539 9.55543C46.3693 9.37083 46.2656 9.12045 46.2656 8.85938V5.32547L50.7839 9.84375H47.25Z" fill="#2737C4"/>
<path d="M28.5469 8.85938C28.5469 8.5983 28.4432 8.34792 28.2586 8.16332C28.074 7.97871 27.8236 7.875 27.5625 7.875H17.7188C17.4577 7.875 17.2073 7.97871 17.0227 8.16332C16.8381 8.34792 16.7344 8.5983 16.7344 8.85938V18.7031C16.7344 18.9642 16.8381 19.2146 17.0227 19.3992C17.2073 19.5838 17.4577 19.6875 17.7188 19.6875H20.6719V17.7188H18.7031V9.84375H26.5781V10.8281H28.5469V8.85938Z" fill="#2737C4"/>
<path d="M22.6406 12.7969H24.6094V14.7656H22.6406V12.7969Z" fill="#2737C4"/>
<path d="M26.5781 12.7969H28.5469V14.7656H26.5781V12.7969Z" fill="#2737C4"/>
<path d="M30.5156 12.7969H32.4844V14.7656H30.5156V12.7969Z" fill="#2737C4"/>
<path d="M30.5156 16.7344H32.4844V18.7031H30.5156V16.7344Z" fill="#2737C4"/>
<path d="M30.5156 20.6719H32.4844V22.6406H30.5156V20.6719Z" fill="#2737C4"/>
<path d="M26.5781 20.6719H28.5469V22.6406H26.5781V20.6719Z" fill="#2737C4"/>
<path d="M22.6406 16.7344H24.6094V18.7031H22.6406V16.7344Z" fill="#2737C4"/>
<path d="M22.6406 20.6719H24.6094V22.6406H22.6406V20.6719Z" fill="#2737C4"/>
</svg>
