<svg width="92" height="79" viewBox="0 0 92 79" fill="none" xmlns="http://www.w3.org/2000/svg">
<path d="M71.0111 3.25625L42.5111 30.7562L36.5117 29.2562L35.0117 27.2562V24.7562V14.7562C35.0117 10.2562 33.0117 8.25623 27.0117 3.25625C21.0117 -1.74374 11.5117 2.75623 7.51172 5.25623C3.51172 7.75623 0.0117189 17.7562 2.51115 23.7562C4.51069 28.5562 7.34467 32.4229 8.51172 33.7562L15.0117 34.7562H23.0117L28.0117 33.7562L31.5111 37.2562L33.0117 41.7562L28.0117 45.7562L23.5117 44.2562C21.8451 43.9229 17.8117 43.2562 15.0117 43.2562C11.5117 43.2562 6.51115 44.2562 2.51115 53.7562C-1.48885 63.2562 7.01115 73.7562 11.0111 76.2562C15.0111 78.7562 25.5111 77.7562 31.5111 72.7562C36.3111 68.7562 35.1778 58.0896 34.0111 53.2562L42.5111 47.7562L73.0111 76.2562H83.0111L89.5111 72.7562L50.5111 39.2562L89.5111 6.25623C89.1778 5.25624 87.3111 2.95625 82.5111 1.75625C77.7111 0.556246 72.8445 2.25625 71.0111 3.25625Z" fill="white"/>
<path d="M25.9742 10.3164C23.861 8.45169 21.0947 7.50087 18.2817 7.67233C15.4686 7.84378 12.8383 9.12352 10.9672 11.2311L10.3322 11.9436C8.47002 14.0563 7.52202 16.8215 7.69615 19.6324C7.87027 22.4433 9.15232 25.0703 11.261 26.9371C13.3697 28.8039 16.1328 29.758 18.944 29.59C21.7553 29.4221 24.3851 28.1458 26.2565 26.0413L26.8933 25.3288C28.7587 23.2145 29.7095 20.4468 29.5372 17.6326C29.3649 14.8183 28.0836 12.1873 25.9742 10.3164ZM24.5554 23.2616L23.9187 23.9795C22.5973 25.4725 20.7369 26.3796 18.7469 26.501C16.7568 26.6224 14.7999 25.9483 13.3069 24.6269C11.8138 23.3056 10.9068 21.4452 10.7853 19.4552C10.6639 17.4651 11.338 15.5082 12.6594 14.0152L13.2944 13.2973C14.6157 11.804 16.4762 10.8968 18.4664 10.7752C20.4567 10.6536 22.4138 11.3276 23.9071 12.6489C25.4004 13.9703 26.3076 15.8307 26.4292 17.821C26.5508 19.8113 25.8768 21.7683 24.5554 23.2616Z" fill="#EB3131"/>
<path d="M26.2533 52.8678C24.3838 50.7559 21.752 49.4733 18.9368 49.3019C16.1216 49.1305 13.3536 50.0845 11.2418 51.954C9.12996 53.8235 7.84728 56.4553 7.67592 59.2705C7.50455 62.0857 8.45853 64.8536 10.328 66.9655L10.963 67.678C11.8815 68.7474 13.0035 69.6236 14.2637 70.2554C15.5239 70.8873 16.8972 71.2623 18.3037 71.3586C19.7101 71.4549 21.1217 71.2706 22.4563 70.8164C23.7908 70.3622 25.0218 69.6471 26.0775 68.7129C27.1332 67.7786 27.9926 66.6438 28.6058 65.3743C29.2189 64.1049 29.5735 62.7262 29.6489 61.3185C29.7244 59.9108 29.5192 58.5021 29.0452 57.1744C28.5713 55.8467 27.8381 54.6265 26.8883 53.5847L26.2533 52.8678ZM23.9083 66.2645C22.4144 67.5837 20.4583 68.2564 18.4691 68.1352C16.4799 68.014 14.62 67.1087 13.2973 65.618L12.6623 64.9001C11.341 63.4073 10.6668 61.4507 10.788 59.4607C10.9093 57.4708 11.8161 55.6106 13.3089 54.2892C14.8018 52.9679 16.7584 52.2936 18.7483 52.4149C20.7382 52.5362 22.5985 53.443 23.9198 54.9358L24.5548 55.6536C25.874 57.1475 26.5467 59.1036 26.4255 61.0928C26.3043 63.082 25.399 64.9419 23.9083 66.2645Z" fill="#EB3131"/>
<path d="M41.6277 35.0511C40.7565 35.0511 39.9048 35.3095 39.1804 35.7935C38.456 36.2776 37.8914 36.9655 37.558 37.7704C37.2246 38.5754 37.1373 39.4611 37.3073 40.3156C37.4773 41.17 37.8968 41.9549 38.5129 42.571C39.1289 43.1871 39.9138 43.6066 40.7683 43.7766C41.6228 43.9465 42.5085 43.8593 43.3134 43.5259C44.1183 43.1925 44.8063 42.6279 45.2904 41.9035C45.7744 41.1791 46.0327 40.3274 46.0327 39.4562C46.0316 38.2882 45.5671 37.1685 44.7412 36.3427C43.9154 35.5168 42.7956 35.0523 41.6277 35.0511ZM41.6277 40.744C41.373 40.744 41.124 40.6685 40.9122 40.527C40.7004 40.3855 40.5354 40.1843 40.4379 39.949C40.3404 39.7137 40.3149 39.4547 40.3646 39.2049C40.4143 38.9551 40.5369 38.7256 40.7171 38.5455C40.8972 38.3654 41.1266 38.2428 41.3765 38.1931C41.6263 38.1434 41.8852 38.1689 42.1205 38.2664C42.3559 38.3638 42.557 38.5289 42.6985 38.7407C42.84 38.9525 42.9155 39.2015 42.9155 39.4562C42.9151 39.7976 42.7792 40.1249 42.5378 40.3663C42.2964 40.6077 41.9691 40.7435 41.6277 40.744Z" fill="#EB3131"/>
<path d="M51.9901 39.4565L90.7403 7.19276C90.9001 7.05933 91.0315 6.89523 91.1268 6.71015C91.2221 6.52507 91.2793 6.32277 91.2951 6.11521C91.3108 5.90765 91.2848 5.69902 91.2186 5.50167C91.1524 5.30432 91.0473 5.12225 90.9095 4.9662C89.5767 3.47018 87.9539 2.26038 86.1396 1.4101C84.3253 0.559831 82.3573 0.0867954 80.3548 0.0196678C78.0845 -0.0553143 75.8221 0.323567 73.7002 1.13411C71.5783 1.94465 69.6394 3.17055 67.9973 4.73998L42.2431 29.4165C42.0383 29.4041 41.8343 29.3853 41.6268 29.3853C41.1007 29.3892 40.5757 29.4345 40.0567 29.5207L35.5857 25.7979C37.3852 21.8118 37.6958 17.3125 36.461 13.117C35.2262 8.92144 32.5279 5.30774 28.8559 2.93196C25.184 0.556171 20.7819 -0.424188 16.4488 0.168859C12.1157 0.761906 8.13888 2.88904 5.24035 6.16409L4.60444 6.87659C1.74382 10.1013 0.115036 14.2334 0.00586646 18.5427C-0.103303 22.8521 1.31417 27.0613 4.00784 30.4268C6.70152 33.7923 10.498 36.0973 14.7266 36.9348C18.9552 37.7723 23.3437 37.0882 27.1168 35.0034L31.5654 39.2668C31.5654 39.331 31.5556 39.3933 31.5556 39.4583C31.5556 39.5233 31.5637 39.5857 31.5654 39.6498L27.1168 43.9097C23.3443 41.8281 18.9577 41.1463 14.7313 41.9845C10.5049 42.8226 6.71057 45.127 4.01798 48.4907C1.32539 51.8544 -0.0923007 56.0612 0.0151668 60.3686C0.122634 64.6759 1.74835 68.8068 4.60533 72.032L5.23946 72.749C6.82638 74.5512 8.75492 76.0209 10.9135 77.0729C13.0721 78.125 15.4178 78.7386 17.8151 78.8783C18.1945 78.9005 18.573 78.913 18.9506 78.913C22.0027 78.9086 25.0051 78.1401 27.6839 76.6775C30.3628 75.2149 32.6327 73.1049 34.2867 70.5398C35.9407 67.9748 36.9261 65.0364 37.153 61.9928C37.3799 58.9491 36.8411 55.8971 35.5857 53.1152L40.0567 49.3923C40.5757 49.4786 41.1007 49.5238 41.6268 49.5277C41.8343 49.5277 42.0383 49.509 42.2431 49.4966L68.0027 74.182C71.1453 77.1862 75.3161 78.8778 79.6636 78.9112C79.8934 78.9112 80.1238 78.9062 80.3548 78.8961C82.3573 78.8289 84.3253 78.3559 86.1396 77.5056C87.9539 76.6554 89.5767 75.4456 90.9095 73.9495C91.0473 73.7935 91.1524 73.6114 91.2186 73.4141C91.2848 73.2167 91.3108 73.0081 91.2951 72.8005C91.2793 72.593 91.2221 72.3907 91.1268 72.2056C91.0315 72.0205 90.9001 71.8564 90.7403 71.723L51.9901 39.4565ZM41.6268 46.4105C41.1004 46.4086 40.576 46.3464 40.0638 46.2253C38.5333 45.8719 37.1678 45.0102 36.19 43.7809C35.2123 42.5516 34.6799 41.0273 34.6799 39.4565C34.6799 37.8858 35.2123 36.3614 36.19 35.1321C37.1678 33.9028 38.5333 33.0412 40.0638 32.6878H40.0709C41.0629 32.4547 42.0941 32.4435 43.091 32.6549C44.0878 32.8664 45.0257 33.2953 45.8376 33.9111C46.6496 34.5268 47.3156 35.3143 47.7881 36.2171C48.2606 37.12 48.5279 38.116 48.571 39.1341V39.1528C48.5755 39.2553 48.5862 39.355 48.5862 39.4583C48.5862 39.5616 48.5755 39.6614 48.571 39.7638V39.7825C48.4864 41.5677 47.718 43.252 46.4251 44.486C45.1322 45.72 43.4141 46.4091 41.6268 46.4105ZM70.1491 6.99237C71.4849 5.70915 73.0642 4.70636 74.7937 4.04312C76.5232 3.37988 78.368 3.06962 80.2194 3.13062C82.8625 3.22101 85.3989 4.19537 87.4227 5.89779L51.12 36.1247C50.6695 34.8502 49.9681 33.6789 49.0571 32.6801C48.1461 31.6813 47.0442 30.8754 45.8163 30.3098L70.1491 6.99237ZM28.4171 31.9299C28.1641 31.6873 27.8366 31.5371 27.4877 31.5036C27.1387 31.4702 26.7887 31.5554 26.4942 31.7455C23.4148 33.7279 19.7219 34.5286 16.098 33.9997C12.4741 33.4708 9.16411 31.648 6.77976 28.8682C4.3954 26.0884 3.09787 22.5394 3.12693 18.8772C3.156 15.215 4.50971 11.6871 6.93788 8.94551L7.57379 8.23301C10.0385 5.44887 13.4406 3.66772 17.1329 3.22832C20.8253 2.78891 24.5503 3.72191 27.5996 5.84986C30.649 7.97782 32.8098 11.1523 33.6712 14.7695C34.5327 18.3868 34.0346 22.1944 32.2717 25.4684C32.1008 25.785 32.0447 26.1509 32.1129 26.5041C32.1811 26.8574 32.3693 27.1761 32.6458 27.4064L36.6304 30.7284C34.6813 31.8469 33.1598 33.5822 32.3055 35.6607L28.4171 31.9299ZM32.6458 51.5067C32.3693 51.7369 32.1811 52.0557 32.1129 52.4089C32.0447 52.7622 32.1008 53.1281 32.2717 53.4447C34.0348 56.7188 34.533 60.5266 33.6716 64.1441C32.8102 67.7616 30.6494 70.9363 27.5999 73.0644C24.5505 75.1926 20.8253 76.1258 17.1328 75.6865C13.4402 75.2472 10.0379 73.466 7.5729 70.6818L6.93877 69.9693C4.5094 67.2281 3.15464 63.6999 3.12496 60.0372C3.09529 56.3745 4.39269 52.8249 6.77733 50.0446C9.16196 47.2643 12.4726 45.4414 16.0971 44.9128C19.7216 44.3843 23.4149 45.1858 26.4942 47.1693C26.7886 47.3599 27.1387 47.4454 27.4877 47.4119C27.8368 47.3785 28.1643 47.228 28.4171 46.985L32.3055 43.2586C33.1598 45.3371 34.6813 47.0724 36.6304 48.1909L32.6458 51.5067ZM80.2194 75.7825C78.3697 75.8411 76.5269 75.5302 74.7989 74.868C73.0708 74.2059 71.4922 73.2057 70.1553 71.926L45.8163 48.6032C47.0442 48.0377 48.1461 47.2317 49.0571 46.233C49.9681 45.2342 50.6695 44.0629 51.12 42.7884L87.4227 73.0153C85.3989 74.7177 82.8625 75.6921 80.2194 75.7825Z" fill="#EB3131"/>
</svg>
