<svg width="27" height="27" viewBox="0 0 27 27" fill="none" xmlns="http://www.w3.org/2000/svg">
<g clip-path="url(#clip0)">
<path d="M11.8902 0C5.33414 0 0 5.33414 0 11.8902C0 18.4467 5.33414 23.7805 11.8902 23.7805C18.4467 23.7805 23.7805 18.4467 23.7805 11.8902C23.7805 5.33414 18.4467 0 11.8902 0ZM11.8902 21.5854C6.54439 21.5854 2.19512 17.2361 2.19512 11.8903C2.19512 6.54444 6.54439 2.19512 11.8902 2.19512C17.2361 2.19512 21.5853 6.54439 21.5853 11.8902C21.5853 17.2361 17.2361 21.5854 11.8902 21.5854Z" fill="#868686"/>
<path d="M26.6785 25.1265L20.3858 18.8338C19.957 18.405 19.2626 18.405 18.8338 18.8338C18.405 19.2622 18.405 19.9574 18.8338 20.3858L25.1265 26.6784C25.3409 26.8928 25.6215 27 25.9025 27C26.1831 27 26.4641 26.8928 26.6785 26.6784C27.1073 26.25 27.1073 25.5549 26.6785 25.1265Z" fill="#868686"/>
</g>
<defs>
<clipPath id="clip0">
<rect width="27" height="27" fill="white"/>
</clipPath>
</defs>
</svg>
